<svg width="1440" height="616" viewBox="0 0 1440 616" fill="none" xmlns="http://www.w3.org/2000/svg">
<g clip-path="url(#clip0_1002_179)">
<g filter="url(#filter0_f_1002_179)">
<path d="M-113 928.66C-113 1147.17 377.829 909.304 863.679 909.304C1349.53 909.304 1847 778.621 1847 560.11C1847 341.599 915.104 70 429.255 70C-56.5953 70 -113 710.149 -113 928.66Z" fill="#6F18FF"/>
</g>
<g filter="url(#filter1_f_1002_179)">
<path d="M1638 1053.5C1638 1251.1 1200.26 1035.99 766.962 1035.99C333.663 1035.99 -107 853.602 -107 656C-12 456.788 711.201 239 1144.5 239C1577.8 239 1638 855.894 1638 1053.5Z" fill="#B2A4FF"/>
</g>
<g opacity="0.9" filter="url(#filter2_f_1002_179)" style="mix-blend-mode:plus-lighter">
<path d="M1598.35 667.18C1624.15 1243.08 645.594 1155.59 446.141 1155.59C246.689 1155.59 85 991.511 85 789.105C85 586.7 279.5 381.344 705.5 587.344C803.149 634.564 1683.62 198.511 1598.35 667.18Z" fill="#E8E4FF"/>
</g>
</g>
<defs>
<filter id="filter0_f_1002_179" x="-213" y="-30" width="2160" height="1151" filterUnits="userSpaceOnUse" color-interpolation-filters="sRGB">
<feFlood flood-opacity="0" result="BackgroundImageFix"/>
<feBlend mode="normal" in="SourceGraphic" in2="BackgroundImageFix" result="shape"/>
<feGaussianBlur stdDeviation="50" result="effect1_foregroundBlur_1002_179"/>
</filter>
<filter id="filter1_f_1002_179" x="-318.1" y="27.9" width="2167.2" height="1320.2" filterUnits="userSpaceOnUse" color-interpolation-filters="sRGB">
<feFlood flood-opacity="0" result="BackgroundImageFix"/>
<feBlend mode="normal" in="SourceGraphic" in2="BackgroundImageFix" result="shape"/>
<feGaussianBlur stdDeviation="105.55" result="effect1_foregroundBlur_1002_179"/>
</filter>
<filter id="filter2_f_1002_179" x="6.4" y="369.4" width="1676.36" height="869.544" filterUnits="userSpaceOnUse" color-interpolation-filters="sRGB">
<feFlood flood-opacity="0" result="BackgroundImageFix"/>
<feBlend mode="normal" in="SourceGraphic" in2="BackgroundImageFix" result="shape"/>
<feGaussianBlur stdDeviation="39.3" result="effect1_foregroundBlur_1002_179"/>
</filter>
<clipPath id="clip0_1002_179">
<rect width="1440" height="616" fill="white"/>
</clipPath>
</defs>
</svg>
