<svg width="266" height="79" viewBox="0 0 266 79" fill="none" xmlns="http://www.w3.org/2000/svg">
<path d="M7.99427 52.0607C9.27473 49.8523 11.9783 45.7096 13.6719 43.6035C13.7022 43.5645 13.7326 43.5256 13.763 43.4867C14.1561 42.9831 14.5385 42.5136 14.9968 41.9696C16.0866 40.7028 17.6226 38.8465 21.0318 35.5668C22.0595 34.6273 23.12 33.7077 24.2117 32.8076C31.401 26.8785 39.7407 22.0326 48.2496 18.1544C53.6284 15.7065 58.969 13.6788 64.5372 11.8754C64.7205 11.8189 64.9071 11.7619 65.096 11.7044C68.7247 10.5886 73.4494 9.35362 76.2876 8.62488C79.9574 7.67386 82.5115 7.08685 84.6093 6.61498C96.5188 4.15745 108.726 2.70267 120.953 2.13684C124.775 1.96053 128.613 1.87186 132.451 1.87056C135.985 1.86936 139.52 1.94061 143.045 2.08246C145.093 2.19042 147.053 2.32353 148.863 2.46307C151.408 2.65904 153.663 2.86766 155.522 3.0351C160.003 3.43185 165.139 3.95338 168.875 4.4235C169.485 4.49929 170.068 4.57388 170.612 4.64567C173.624 5.08788 176.607 5.58126 179.554 6.12395C179.753 6.1486 179.954 6.17331 180.157 6.1986C182.681 6.51601 185.892 7.11791 190.706 8.21632C192.775 8.69104 195.289 9.29805 198.152 10.0526C199.999 10.5409 200.946 10.7597 201.722 10.9379C201.949 10.9905 202.163 11.0403 202.378 11.0932C203.12 11.2765 203.849 11.5279 204.781 11.8539C205.971 12.2717 207.388 12.7774 209.268 13.3449C215.176 15.1493 217.783 16.3807 219.661 17.2273C220.216 17.482 220.715 17.7147 221.227 17.9452C222.869 18.6802 225.288 19.7199 227.121 20.548C228.581 21.197 231.313 22.6262 233.352 23.8266C234.149 24.2912 235.226 24.9034 236.458 25.6438C237.733 26.4097 239.172 27.3144 240.64 28.3271C244.527 31.0281 246.348 32.6057 247.806 33.8508C248.239 34.2255 248.643 34.5848 249.037 34.9422C250.284 36.0734 251.761 37.5021 253.135 38.9938C254.804 40.7909 256.421 42.8296 257.487 44.3645C260.377 48.3637 262.646 52.8336 263.95 57.6192C264.63 60.0923 265.031 62.4471 265.267 64.2608C265.502 66.0648 265.593 67.1187 265.722 67.1177C265.839 67.1195 265.99 66.0623 265.959 64.2092C265.925 62.3483 265.667 59.901 265.021 57.3395C263.744 52.2163 261.379 47.3826 258.356 43.108C254.628 37.8222 249.897 33.289 244.896 29.4783C241.201 26.6752 237.644 24.3993 233.596 22.1298C233.205 21.9111 232.811 21.6941 232.414 21.4786C229.233 19.6744 225.718 17.9402 223.376 16.8762C221.425 15.9865 219.946 15.4015 218.671 14.9087C217.792 14.5701 217.007 14.2762 216.214 13.9658C215.794 13.8016 215.183 13.5635 214.514 13.3079C211.778 12.2505 206.822 10.5043 202.351 9.25599C200.372 8.69642 198.035 8.09821 195.771 7.56406C192.486 6.78523 189.592 6.1979 188.061 5.83799C185.429 5.21468 182.276 4.61172 179.614 4.15617C177.04 3.71237 174.762 3.36776 173.471 3.11886C171.937 2.82292 170.573 2.64045 168.634 2.40614C167.278 2.24326 165.61 2.05049 163.332 1.79512C160.704 1.50219 158.816 1.35573 157.234 1.24107C155.011 1.0831 153.335 0.980415 150.836 0.736023C148.06 0.465408 145.136 0.261612 142.85 0.193298C141.806 0.161446 140.612 0.116127 139.368 0.0780869C137.722 0.0273895 135.989 -0.00963593 134.406 0.00215912C133.101 0.0117722 132.023 0.0683975 131.069 0.122673C130.772 0.139633 130.487 0.156334 130.21 0.171532C129.172 0.176254 128.134 0.186523 127.096 0.202065C126.928 0.195267 126.752 0.187729 126.567 0.180176C125.641 0.14238 124.502 0.0997543 123.094 0.109558C120.869 0.125641 118.905 0.24482 116.842 0.393181C115.236 0.509293 113.569 0.64357 111.66 0.775414C110.355 0.865578 108.887 0.960861 107.405 1.07164C105.206 1.23492 103.044 1.42964 101.553 1.62584C100.994 1.69912 100.518 1.79498 100.048 1.89127C100.046 1.89175 100.044 1.89224 100.042 1.89273C100.01 1.89928 99.9778 1.90578 99.946 1.91231C96.3395 2.32302 92.6568 2.82455 89.0461 3.40556C88.7317 3.44893 88.4143 3.49364 88.1001 3.53864C86.5647 3.75802 85.0823 3.98924 84.1118 4.11019C83.0395 4.2436 80.3648 4.73307 77.596 5.31962C75.781 5.70182 73.924 6.12341 72.4135 6.46941C71.5067 6.67747 70.6665 6.94183 69.8074 7.21918C69.006 7.47805 68.1875 7.74831 67.2834 7.99777C66.8305 8.12274 66.3394 8.24813 65.8169 8.38418C65.357 8.50394 64.8718 8.63218 64.3678 8.77563C63.8996 8.90903 62.8703 9.24914 61.568 9.70318C60.7481 9.98855 59.8012 10.3254 58.8248 10.6803C56.2165 11.5541 53.6603 12.4863 51.164 13.4781C50.6321 13.6556 50.1364 13.8105 49.7495 13.9072C49.4697 13.9776 49.226 14.0245 48.9761 14.0733C48.636 14.1399 48.2843 14.2097 47.8183 14.3481C47.4541 14.4562 47.0405 14.6188 46.7767 14.7577C46.7646 14.7641 46.7528 14.7704 46.7413 14.7766C46.6361 14.834 46.5556 14.8866 46.4819 14.9349C46.3883 14.9962 46.3049 15.0509 46.1951 15.1001C46.1159 15.1356 46.0286 15.1615 45.9214 15.1938C45.7502 15.2453 45.5277 15.3127 45.2096 15.4586C44.0258 16.0011 42.7045 16.648 41.4333 17.3019C40.011 18.0318 38.5729 18.8129 37.4695 19.4171C36.2231 20.0969 34.5063 21.1439 32.8477 22.2368C31.7126 22.9831 30.4959 23.8188 29.5062 24.5129C28.5272 25.1977 27.5071 25.8951 26.5391 26.5869C25.3735 27.4191 24.2991 28.2313 23.4123 29.007C23.2303 29.166 23.0285 29.3928 22.7782 29.678C22.6009 29.8802 22.3979 30.113 22.1626 30.371C21.018 31.3495 19.9106 32.3544 18.8425 33.3849C18.8006 33.4166 18.7575 33.4495 18.7143 33.4824C18.7136 33.4828 18.7128 33.4833 18.7121 33.4838C17.7363 34.2288 16.4282 35.2519 14.9068 37.1213C14.525 37.5925 14.3156 37.9148 14.1279 38.2047C13.9439 38.4898 13.7809 38.7444 13.5072 39.0857C13.1965 39.4733 12.8046 39.9082 12.3863 40.3893C11.7986 41.0642 11.1592 41.8324 10.6115 42.6686C10.5742 42.7255 10.5338 42.7874 10.4912 42.8525C10.0882 43.4678 9.50746 44.3872 8.99697 45.3384C7.28298 48.0269 5.79087 50.839 4.54368 53.7511C2.44665 58.6507 1.0828 63.6919 0.381008 68.9981C0.0551265 71.4694 -0.0326583 73.9165 0.0102071 75.7439C0.0544709 77.5721 0.191278 78.6192 0.308537 78.6177C0.432252 78.619 0.536693 77.5723 0.741267 75.7761C0.94408 73.9792 1.26039 71.5982 1.70176 69.2023C2.44795 65.104 3.57876 61.2949 5.16 57.5111C5.24483 57.3155 5.33095 57.1197 5.41754 56.9254C6.06219 55.4797 6.74763 54.1863 7.48044 52.9258C7.64887 52.6363 7.82024 52.3481 7.99427 52.0607Z" fill="#C8DB48"/>
</svg>
