<svg width="266" height="79" viewBox="0 0 266 79" fill="none" xmlns="http://www.w3.org/2000/svg">
<path d="M7.99427 26.557C9.27473 28.7654 11.9783 32.9081 13.6719 35.0142C13.7022 35.0532 13.7326 35.0921 13.763 35.131C14.1561 35.6345 14.5385 36.1041 14.9968 36.6481C16.0866 37.9148 17.6226 39.7711 21.0318 43.0508C22.0595 43.9904 23.12 44.91 24.2117 45.81C31.401 51.7392 39.7407 56.5851 48.2496 60.4633C53.6284 62.9112 58.969 64.9389 64.5372 66.7423C64.7205 66.7987 64.9071 66.8558 65.096 66.9132C68.7247 68.029 73.4494 69.2641 76.2876 69.9928C79.9574 70.9438 82.5115 71.5308 84.6093 72.0027C96.5188 74.4602 108.726 75.915 120.953 76.4808C124.775 76.6572 128.613 76.7458 132.451 76.7471C135.985 76.7483 139.52 76.6771 143.045 76.5352C145.093 76.4273 147.053 76.2941 148.863 76.1546C151.408 75.9586 153.663 75.75 155.522 75.5826C160.003 75.1858 165.139 74.6643 168.875 74.1942C169.485 74.1184 170.068 74.0438 170.612 73.972C173.624 73.5298 176.607 73.0364 179.554 72.4937C179.753 72.4691 179.954 72.4444 180.157 72.4191C182.681 72.1017 185.892 71.4998 190.706 70.4014C192.775 69.9266 195.289 69.3196 198.152 68.565C199.999 68.0768 200.946 67.858 201.722 67.6798C201.949 67.6272 202.163 67.5774 202.378 67.5245C203.12 67.3411 203.849 67.0898 204.781 66.7638C205.971 66.346 207.388 65.8403 209.268 65.2728C215.176 63.4683 217.783 62.237 219.661 61.3904C220.216 61.1356 220.715 60.9029 221.227 60.6725C222.869 59.9375 225.288 58.8977 227.121 58.0697C228.581 57.4207 231.313 55.9914 233.352 54.7911C234.149 54.3265 235.226 53.7143 236.458 52.9739C237.733 52.208 239.172 51.3032 240.64 50.2905C244.527 47.5896 246.348 46.012 247.806 44.7669C248.239 44.3921 248.643 44.0329 249.037 43.6755C250.284 42.5442 251.761 41.1156 253.135 39.6239C254.804 37.8268 256.421 35.7881 257.487 34.2532C260.377 30.254 262.646 25.784 263.95 20.9985C264.63 18.5254 265.031 16.1706 265.267 14.3569C265.502 12.5528 265.593 11.499 265.722 11.5C265.839 11.4982 265.99 12.5554 265.959 14.4085C265.925 16.2694 265.667 18.7167 265.021 21.2782C263.744 26.4013 261.379 31.235 258.356 35.5097C254.628 40.7954 249.897 45.3287 244.896 49.1393C241.201 51.9424 237.644 54.2184 233.596 56.4879C233.205 56.7065 232.811 56.9236 232.414 57.1391C229.233 58.9432 225.718 60.6774 223.376 61.7414C221.425 62.6312 219.946 63.2162 218.671 63.7089C217.792 64.0476 217.007 64.3415 216.214 64.6518C215.794 64.8161 215.183 65.0541 214.514 65.3098C211.778 66.3671 206.822 68.1133 202.351 69.3617C200.372 69.9213 198.035 70.5195 195.771 71.0536C192.486 71.8324 189.592 72.4198 188.061 72.7797C185.429 73.403 182.276 74.006 179.614 74.4615C177.04 74.9053 174.762 75.2499 173.471 75.4988C171.937 75.7948 170.573 75.9772 168.634 76.2115C167.278 76.3744 165.61 76.5672 163.332 76.8226C160.704 77.1155 158.816 77.2619 157.234 77.3766C155.011 77.5346 153.335 77.6373 150.836 77.8817C148.06 78.1523 145.136 78.3561 142.85 78.4244C141.806 78.4562 140.612 78.5015 139.368 78.5396C137.722 78.5903 135.989 78.6273 134.406 78.6155C133.101 78.6059 132.023 78.5493 131.069 78.495C130.772 78.478 130.487 78.4613 130.21 78.4461C129.172 78.4414 128.134 78.4312 127.096 78.4156C126.928 78.4224 126.752 78.4299 126.567 78.4375C125.641 78.4753 124.502 78.5179 123.094 78.5081C120.869 78.492 118.905 78.3729 116.842 78.2245C115.236 78.1084 113.569 77.9741 111.66 77.8423C110.355 77.7521 108.887 77.6568 107.405 77.546C105.206 77.3828 103.044 77.188 101.553 76.9918C100.994 76.9186 100.518 76.8227 100.048 76.7264C100.046 76.7259 100.044 76.7254 100.042 76.7249C100.01 76.7184 99.9778 76.7119 99.946 76.7054C96.3395 76.2947 92.6568 75.7931 89.0461 75.2121C88.7317 75.1687 88.4143 75.124 88.1001 75.079C86.5647 74.8597 85.0823 74.6284 84.1118 74.5075C83.0395 74.3741 80.3648 73.8846 77.596 73.2981C75.781 72.9159 73.924 72.4943 72.4135 72.1483C71.5067 71.9402 70.6665 71.6758 69.8074 71.3985C69.006 71.1396 68.1875 70.8694 67.2834 70.6199C66.8305 70.4949 66.3394 70.3695 65.8169 70.2335C65.357 70.1137 64.8718 69.9855 64.3678 69.842C63.8996 69.7086 62.8703 69.3685 61.568 68.9145C60.7481 68.6291 59.8012 68.2922 58.8248 67.9374C56.2165 67.0636 53.6603 66.1314 51.164 65.1395C50.6321 64.9621 50.1364 64.8072 49.7495 64.7104C49.4697 64.6401 49.226 64.5932 48.9761 64.5443C48.636 64.4777 48.2843 64.4079 47.8183 64.2696C47.4541 64.1615 47.0405 63.9989 46.7767 63.86C46.7646 63.8536 46.7528 63.8473 46.7413 63.841C46.6361 63.7837 46.5556 63.731 46.4819 63.6828C46.3883 63.6214 46.3049 63.5667 46.1951 63.5175C46.1159 63.4821 46.0286 63.4562 45.9214 63.4239C45.7502 63.3723 45.5277 63.3049 45.2096 63.1591C44.0258 62.6165 42.7045 61.9696 41.4333 61.3157C40.011 60.5859 38.5729 59.8048 37.4695 59.2006C36.2231 58.5208 34.5063 57.4737 32.8477 56.3809C31.7126 55.6346 30.4959 54.7989 29.5062 54.1048C28.5272 53.42 27.5071 52.7225 26.5391 52.0308C25.3735 51.1986 24.2991 50.3863 23.4123 49.6107C23.2303 49.4517 23.0285 49.2249 22.7782 48.9396C22.6009 48.7375 22.3979 48.5047 22.1626 48.2467C21.018 47.2681 19.9106 46.2632 18.8425 45.2328C18.8006 45.2011 18.7575 45.1682 18.7143 45.1353C18.7136 45.1348 18.7128 45.1343 18.7121 45.1339C17.7363 44.3889 16.4282 43.3658 14.9068 41.4964C14.525 41.0251 14.3156 40.7029 14.1279 40.4129C13.9439 40.1279 13.7809 39.8732 13.5072 39.532C13.1965 39.1444 12.8046 38.7095 12.3863 38.2284C11.7986 37.5535 11.1592 36.7853 10.6115 35.9491C10.5742 35.8922 10.5338 35.8302 10.4912 35.7651C10.0882 35.1498 9.50746 34.2305 8.99697 33.2793C7.28298 30.5907 5.79087 27.7786 4.54368 24.8666C2.44665 19.967 1.0828 14.9258 0.381008 9.61956C0.0551265 7.14829 -0.0326583 4.70114 0.0102071 2.87373C0.0544709 1.04555 0.191278 -0.00155615 0.308537 0C0.432252 -0.00132896 0.536693 1.04534 0.741267 2.84155C0.94408 4.63851 1.26039 7.0195 1.70176 9.41541C2.44795 13.5137 3.57876 17.3227 5.16 21.1066C5.24483 21.3022 5.33095 21.4979 5.41754 21.6923C6.06219 23.138 6.74763 24.4313 7.48044 25.6918C7.64887 25.9813 7.82024 26.2696 7.99427 26.557Z" fill="#C8DB48"/>
</svg>
