<svg width="34" height="34" viewBox="0 0 34 34" fill="none" xmlns="http://www.w3.org/2000/svg">
<path d="M18.4563 2.8335C20.0501 2.83775 20.859 2.84625 21.5574 2.86608L21.8322 2.876C22.1496 2.88733 22.4627 2.9015 22.8409 2.9185C24.3482 2.98933 25.3767 3.22733 26.2792 3.57725C27.2142 3.93708 28.0018 4.42441 28.7895 5.21066C29.5101 5.91862 30.0676 6.77533 30.4229 7.721C30.7728 8.62341 31.0108 9.65191 31.0817 11.1607C31.0987 11.5375 31.1128 11.8506 31.1242 12.1693L31.1327 12.4442C31.1539 13.1412 31.1624 13.9501 31.1652 15.5438L31.1667 16.6007V18.4565C31.1701 19.4898 31.1592 20.5231 31.1341 21.5562L31.1256 21.831C31.1142 22.1497 31.1001 22.4628 31.0831 22.8397C31.0122 24.3484 30.7714 25.3755 30.4229 26.2793C30.0676 27.225 29.5101 28.0817 28.7895 28.7897C28.0815 29.5103 27.2248 30.0678 26.2792 30.4231C25.3767 30.773 24.3482 31.011 22.8409 31.0818L21.8322 31.1243L21.5574 31.1328C20.859 31.1527 20.0501 31.1626 18.4563 31.1654L17.3995 31.1668H15.5451C14.5113 31.1705 13.4775 31.1596 12.444 31.1342L12.1692 31.1257C11.8329 31.113 11.4966 31.0984 11.1605 31.0818C9.65316 31.011 8.62466 30.773 7.72083 30.4231C6.77567 30.0676 5.91945 29.5101 5.21191 28.7897C4.49075 28.0818 3.93281 27.2251 3.57708 26.2793C3.22716 25.3769 2.98916 24.3484 2.91833 22.8397L2.87583 21.831L2.86874 21.5562C2.84263 20.5232 2.83082 19.4898 2.83333 18.4565V15.5438C2.8294 14.5105 2.83979 13.4772 2.86449 12.4442L2.87441 12.1693C2.88574 11.8506 2.89991 11.5375 2.91691 11.1607C2.98774 9.65191 3.22574 8.62483 3.57566 7.721C3.93223 6.77494 4.49114 5.9182 5.21333 5.21066C5.92046 4.49036 6.77617 3.93293 7.72083 3.57725C8.62466 3.22733 9.65174 2.98933 11.1605 2.9185C11.5373 2.9015 11.8518 2.88733 12.1692 2.876L12.444 2.8675C13.477 2.84233 14.5103 2.83146 15.5437 2.83491L18.4563 2.8335ZM17 9.91683C15.1214 9.91683 13.3197 10.6631 11.9913 11.9915C10.6629 13.3199 9.91666 15.1215 9.91666 17.0002C9.91666 18.8788 10.6629 20.6805 11.9913 22.0088C13.3197 23.3372 15.1214 24.0835 17 24.0835C18.8786 24.0835 20.6803 23.3372 22.0087 22.0088C23.337 20.6805 24.0833 18.8788 24.0833 17.0002C24.0833 15.1215 23.337 13.3199 22.0087 11.9915C20.6803 10.6631 18.8786 9.91683 17 9.91683ZM17 12.7502C17.5581 12.7501 18.1108 12.8599 18.6264 13.0734C19.1421 13.2869 19.6107 13.5999 20.0054 13.9945C20.4001 14.389 20.7132 14.8575 20.9269 15.3731C21.1406 15.8887 21.2506 16.4413 21.2507 16.9995C21.2508 17.5576 21.141 18.1102 20.9275 18.6259C20.714 19.1416 20.401 19.6102 20.0064 20.0049C19.6118 20.3996 19.1434 20.7127 18.6278 20.9264C18.1122 21.14 17.5595 21.2501 17.0014 21.2502C15.8742 21.2502 14.7932 20.8024 13.9962 20.0054C13.1992 19.2083 12.7514 18.1273 12.7514 17.0002C12.7514 15.873 13.1992 14.792 13.9962 13.995C14.7932 13.1979 15.8742 12.7502 17.0014 12.7502M24.4389 7.79183C23.9693 7.79183 23.5188 7.9784 23.1867 8.31049C22.8546 8.64259 22.6681 9.09301 22.6681 9.56266C22.6681 10.0323 22.8546 10.4827 23.1867 10.8148C23.5188 11.1469 23.9693 11.3335 24.4389 11.3335C24.9086 11.3335 25.359 11.1469 25.6911 10.8148C26.0232 10.4827 26.2097 10.0323 26.2097 9.56266C26.2097 9.09301 26.0232 8.64259 25.6911 8.31049C25.359 7.9784 24.9086 7.79183 24.4389 7.79183Z" fill="white"/>
</svg>
