<svg width="34" height="34" viewBox="0 0 34 34" fill="none" xmlns="http://www.w3.org/2000/svg">
<path d="M20.8548 32.1016C27.1547 30.5008 31.9218 25.0594 32.5196 18.4166H25.4632C25.1997 23.4415 23.5422 28.1165 20.8548 32.1016ZM32.5196 15.5833C31.9218 8.93912 27.1504 3.49629 20.8491 1.89546C23.5379 5.88196 25.1983 10.557 25.4632 15.5833H32.5196ZM13.1523 1.89546C6.84817 3.49629 2.07967 8.93912 1.479 15.5833H8.53684C8.80175 10.557 10.4621 5.88196 13.1523 1.89546ZM1.48042 18.4166C1.77465 21.6227 3.05377 24.6591 5.14226 27.1093C7.23075 29.5595 10.0263 31.3033 13.1453 32.1016C10.4578 28.1165 8.80034 23.4415 8.53684 18.4166H1.48042ZM17 32.5295C13.7318 28.584 11.6847 23.7164 11.3758 18.4166H22.6256C22.3139 23.715 20.2683 28.584 17.0014 32.5295M17 1.47754C20.2683 5.42154 22.3125 10.2878 22.6242 15.5833H11.3758C11.6875 10.2878 13.7332 5.42154 17 1.47754Z" fill="white"/>
</svg>
