<svg width="174" height="86" viewBox="0 0 174 86" fill="none" xmlns="http://www.w3.org/2000/svg">
<path d="M12.601 41.5411L11.1949 37.1453L16.6027 35.4155C17.8255 35.0243 18.6801 34.4082 19.1663 33.567C19.6631 32.7225 19.7227 31.71 19.345 30.5293L19.3349 30.4977C18.9538 29.3065 18.3177 28.5165 17.4263 28.1276C16.5456 27.7354 15.4938 27.7349 14.271 28.126L8.86316 29.8559L7.4368 25.3968L14.2361 23.2218C15.9333 22.6789 17.517 22.5442 18.9872 22.8176C20.4541 23.0804 21.724 23.7084 22.797 24.7015C23.8772 25.6807 24.6786 26.9872 25.2012 28.6212L25.2114 28.6528C25.7306 30.2762 25.8363 31.8053 25.5284 33.2401C25.2276 34.661 24.5562 35.9042 23.5142 36.9696C22.4688 38.0244 21.0975 38.8233 19.4003 39.3662L12.601 41.5411ZM11.8103 49.1496L4.51153 26.3325L10.3146 24.4762L17.6134 47.2934L11.8103 49.1496ZM37.7474 41.3061C36.4613 41.7175 35.2497 41.9075 34.1125 41.8762C32.9754 41.8448 31.9352 41.6082 30.992 41.1662C30.0455 40.7137 29.2238 40.0701 28.5269 39.2356C27.8266 38.3906 27.2737 37.3705 26.8682 36.1756L26.8379 36.0807L32.4196 34.2952L32.4557 34.3534C32.655 34.9403 32.931 35.4215 33.2834 35.7968C33.6464 36.1687 34.067 36.4118 34.5451 36.5262C35.0199 36.6299 35.5366 36.5925 36.0953 36.4137C36.9597 36.1372 37.5342 35.6629 37.8189 34.9909C38.1002 34.3083 38.0774 33.4557 37.7503 32.4332L32.8946 17.2534L38.6977 15.3971L43.5686 30.6243C44.1081 32.311 44.2363 33.8561 43.9532 35.2597C43.6807 36.66 43.0184 37.877 41.9662 38.9107C40.9247 39.9411 39.5184 40.7396 37.7474 41.3061ZM56.9119 35.1758C55.6258 35.5871 54.4142 35.7772 53.277 35.7458C52.1399 35.7145 51.0997 35.4779 50.1565 35.0359C49.21 34.5833 48.3882 33.9398 47.6914 33.1053C46.9911 32.2602 46.4382 31.2402 46.0327 30.0452L46.0024 29.9504L51.5841 28.1649L51.6202 28.2231C51.8195 28.81 52.0954 29.2912 52.4479 29.6665C52.8109 30.0384 53.2315 30.2815 53.7096 30.3958C54.1844 30.4996 54.7011 30.4621 55.2598 30.2834C56.1242 30.0069 56.6987 29.5326 56.9834 28.8606C57.2647 28.1779 57.2418 27.3254 56.9148 26.3028L52.0591 11.1231L57.8622 9.26676L62.733 24.494C63.2726 26.1806 63.4008 27.7258 63.1177 29.1294C62.8452 30.5297 62.1828 31.7467 61.1307 32.7804C60.0891 33.8108 58.6829 34.6093 56.9119 35.1758Z" fill="#322098"/>
<g clip-path="url(#clip0_910_2)">
<rect width="157" height="32" transform="translate(13.7871 54.8174) rotate(-17.7384)" fill="#322098"/>
<path d="M35.3033 74.5272C33.6961 75.0413 32.1987 75.1553 30.8111 74.8691C29.4212 74.5755 28.2113 73.9085 27.1813 72.8682C26.1489 71.8204 25.3518 70.4185 24.7901 68.6624L24.7865 68.6512C24.2272 66.9026 24.065 65.3058 24.3 63.8608C24.54 62.406 25.1383 61.1606 26.0947 60.1246C27.0585 59.0863 28.3441 58.3101 29.9514 57.7959C31.3428 57.3508 32.6624 57.2322 33.9101 57.4401C35.1553 57.6405 36.2416 58.1133 37.169 58.8584C38.0963 59.6035 38.7788 60.5704 39.2165 61.7592L39.267 61.8784L35.3157 63.1423L35.2434 62.9932C34.9831 62.4613 34.6388 62.026 34.2105 61.6872C33.7897 61.3461 33.3105 61.1302 32.773 61.0397C32.2331 60.9417 31.6544 60.9915 31.0367 61.1891C30.2852 61.4295 29.7009 61.8337 29.2839 62.4019C28.8668 62.97 28.6273 63.67 28.5653 64.5019C28.5033 65.3338 28.6377 66.2669 28.9686 67.3012L28.9721 67.3123C29.3054 68.3541 29.7398 69.1994 30.2755 69.8483C30.8112 70.4972 31.4149 70.9357 32.0866 71.1637C32.7634 71.382 33.4738 71.3721 34.2179 71.1341C34.8132 70.9436 35.3047 70.6593 35.6922 70.2811C36.0774 69.8954 36.3498 69.4391 36.5094 68.9123C36.669 68.3855 36.7031 67.8128 36.6118 67.194L36.5837 67.0676L40.5349 65.8037L40.5777 65.9376C40.9038 67.1621 40.9017 68.3481 40.5715 69.4954C40.2464 70.6329 39.635 71.6446 38.7372 72.5306C37.8394 73.4166 36.6948 74.0821 35.3033 74.5272ZM44.5903 71.212L39.4382 55.1058L43.5346 53.7955L45.5554 60.1129L51.9733 58.06L49.9525 51.7425L54.0488 50.4322L59.2008 66.5384L55.1045 67.8487L53.0301 61.3638L46.6122 63.4168L48.6866 69.9017L44.5903 71.212ZM60.9644 65.9743L61.2369 48.1329L64.976 46.9368L66.1007 50.4527L64.8171 50.8633L65.2728 64.5961L60.9644 65.9743ZM63.006 61.4332L62.9751 58.1826L70.6543 55.7262L72.5046 58.3948L63.006 61.4332ZM72.5166 62.2789L64.9175 50.8311L63.7929 47.3152L66.2484 46.5298L76.825 60.9008L72.5166 62.2789ZM78.5886 60.3366L73.4365 44.2304L77.5328 42.9201L81.6316 55.7336L88.3286 53.5914L89.3818 56.8841L78.5886 60.3366ZM91.4691 56.2164L86.317 40.1102L90.4133 38.7999L94.5121 51.6134L101.209 49.4712L102.262 52.7639L91.4691 56.2164ZM104.35 52.0962L99.1975 35.99L110.236 32.4589L111.29 35.7516L104.347 37.9724L105.365 41.1534L111.894 39.0648L112.88 42.1454L106.35 44.234L107.393 47.4932L114.335 45.2725L115.388 48.5651L104.35 52.0962ZM117.922 47.7547L112.77 31.6485L116.219 30.5452L127.551 39.1625L123.997 38.2446L125.749 37.6841L122.793 28.4423L126.845 27.1462L131.997 43.2524L128.593 44.3414L117.195 35.6344L120.738 36.5558L118.997 37.1128L121.985 46.4551L117.922 47.7547ZM142.243 40.3195C141 40.717 139.828 40.8868 138.727 40.829C137.623 40.7637 136.614 40.4796 135.698 39.9768C134.783 39.474 133.977 38.7638 133.282 37.8461C132.584 36.921 132.023 35.7961 131.6 34.4716L131.596 34.4605C131.039 32.7193 130.878 31.1262 131.113 29.6812C131.355 28.2338 131.955 26.9922 132.911 25.9562C133.875 24.9179 135.164 24.1405 136.779 23.6239C138.096 23.2026 139.348 23.0647 140.535 23.2101C141.726 23.3456 142.778 23.7228 143.69 24.3417C144.599 24.9531 145.289 25.7657 145.761 26.7795L145.823 26.8952L141.771 28.1912L141.702 28.0903C141.287 27.5096 140.744 27.1213 140.074 26.9253C139.405 26.7294 138.672 26.7588 137.876 27.0135C137.109 27.2587 136.511 27.6591 136.082 28.2147C135.653 28.7703 135.406 29.4604 135.342 30.2848C135.285 31.1069 135.423 32.0388 135.756 33.0805L135.76 33.0917C136.014 33.8879 136.331 34.5699 136.71 35.1379C137.096 35.7034 137.525 36.1484 137.998 36.4729C138.478 36.795 138.993 36.9952 139.543 37.0735C140.091 37.1444 140.659 37.0858 141.247 36.8978C141.864 36.7002 142.373 36.4186 142.773 36.0528C143.18 35.6847 143.462 35.2582 143.618 34.7734C143.773 34.2811 143.783 33.7612 143.648 33.2135L143.595 33.009L140.437 34.0195L139.508 31.1174L146.629 28.8395L147.283 30.8821C147.633 31.976 147.784 33.0143 147.738 33.997C147.691 34.9798 147.451 35.8812 147.016 36.7011C146.581 37.521 145.962 38.2399 145.159 38.8577C144.361 39.4657 143.389 39.9529 142.243 40.3195ZM151.675 36.9579L146.523 20.8517L157.562 17.3206L158.615 20.6133L151.672 22.834L152.69 26.0151L159.219 23.9264L160.205 27.007L153.675 29.0957L154.718 32.3549L161.66 30.1341L162.714 33.4268L151.675 36.9579Z" fill="#E8FF42"/>
</g>
<defs>
<clipPath id="clip0_910_2">
<rect width="157" height="32" fill="white" transform="translate(13.7871 54.8174) rotate(-17.7384)"/>
</clipPath>
</defs>
</svg>
