<svg width="827" height="515" viewBox="0 0 827 515" fill="none" xmlns="http://www.w3.org/2000/svg">
<g opacity="0.94" filter="url(#filter0_df_1046_57)">
<path d="M148.762 240.07L143.896 224.876L162.609 218.897C166.84 217.545 169.797 215.416 171.479 212.508C173.198 209.589 173.404 206.09 172.098 202.009L172.063 201.9C170.744 197.782 168.543 195.052 165.459 193.708C162.411 192.352 158.771 192.35 154.54 193.702L135.828 199.681L130.892 184.269L154.419 176.751C160.292 174.875 165.772 174.409 170.86 175.354C175.935 176.263 180.33 178.433 184.042 181.866C187.78 185.25 190.553 189.766 192.362 195.414L192.397 195.523C194.194 201.134 194.559 206.419 193.494 211.378C192.453 216.29 190.13 220.587 186.524 224.269C182.907 227.915 178.162 230.676 172.289 232.553L148.762 240.07ZM146.026 266.368L120.77 187.503L140.85 181.087L166.106 259.952L146.026 266.368ZM235.774 239.258C231.325 240.68 227.132 241.336 223.197 241.228C219.262 241.12 215.663 240.302 212.399 238.774C209.124 237.21 206.281 234.985 203.869 232.101C201.446 229.181 199.533 225.655 198.13 221.525L198.025 221.197L217.339 215.025L217.464 215.226C218.154 217.255 219.109 218.918 220.328 220.215C221.584 221.501 223.039 222.341 224.694 222.736C226.337 223.095 228.125 222.966 230.058 222.348C233.049 221.392 235.037 219.753 236.022 217.43C236.996 215.071 236.916 212.124 235.785 208.589L218.983 156.122L239.063 149.706L255.917 202.337C257.784 208.167 258.228 213.508 257.248 218.359C256.305 223.199 254.013 227.405 250.373 230.978C246.769 234.54 241.903 237.3 235.774 239.258ZM302.088 218.069C297.639 219.491 293.446 220.148 289.511 220.039C285.576 219.931 281.977 219.113 278.713 217.585C275.438 216.021 272.595 213.797 270.183 210.913C267.76 207.992 265.847 204.466 264.444 200.336L264.339 200.008L283.653 193.837L283.778 194.038C284.468 196.066 285.423 197.73 286.642 199.027C287.898 200.312 289.353 201.152 291.008 201.547C292.651 201.906 294.439 201.777 296.372 201.159C299.363 200.203 301.351 198.564 302.336 196.241C303.31 193.882 303.23 190.935 302.098 187.401L285.297 134.934L305.377 128.518L322.231 181.149C324.098 186.978 324.542 192.319 323.562 197.17C322.619 202.01 320.327 206.217 316.687 209.79C313.083 213.351 308.217 216.111 302.088 218.069Z" fill="#E8FF42"/>
<mask id="mask0_1046_57" style="mask-type:luminance" maskUnits="userSpaceOnUse" x="152" y="120" width="553" height="272">
<path d="M670.304 120.627L152.873 285.958L186.608 391.303L704.04 225.973L670.304 120.627Z" fill="white"/>
</mask>
<g mask="url(#mask0_1046_57)">
<path d="M670.304 120.627L152.873 285.958L186.608 391.303L704.04 225.973L670.304 120.627Z" fill="#E8FF42"/>
<path d="M227.336 354.082C221.774 355.858 216.593 356.252 211.792 355.264C206.982 354.251 202.796 351.946 199.231 348.347C195.659 344.727 192.901 339.881 190.958 333.811L190.945 333.773C189.01 327.729 188.448 322.21 189.261 317.215C190.092 312.187 192.162 307.882 195.472 304.302C198.807 300.713 203.255 298.03 208.817 296.253C213.632 294.714 218.198 294.305 222.515 295.023C226.824 295.716 230.583 297.35 233.791 299.925C237 302.5 239.362 305.842 240.877 309.951L241.051 310.363L227.379 314.732L227.129 314.216C226.228 312.378 225.036 310.873 223.554 309.702C222.098 308.523 220.44 307.778 218.581 307.464C216.712 307.126 214.71 307.298 212.572 307.981C209.972 308.812 207.95 310.209 206.507 312.173C205.064 314.136 204.235 316.556 204.02 319.431C203.806 322.306 204.271 325.532 205.416 329.106L205.428 329.145C206.581 332.746 208.085 335.667 209.938 337.91C211.792 340.153 213.881 341.669 216.205 342.457C218.547 343.211 221.005 343.177 223.58 342.354C225.64 341.696 227.34 340.713 228.682 339.406C230.014 338.073 230.957 336.496 231.509 334.675C232.061 332.855 232.179 330.875 231.863 328.736L231.766 328.299L245.438 323.931L245.587 324.394C246.715 328.626 246.708 332.725 245.565 336.69C244.44 340.622 242.324 344.119 239.218 347.183C236.112 350.245 232.151 352.543 227.336 354.082ZM259.471 342.624L241.644 286.955L255.818 282.426L262.81 304.261L285.018 297.165L278.026 275.33L292.2 270.801L310.027 326.47L295.853 330.999L288.675 308.585L266.468 315.681L273.645 338.095L259.471 342.624ZM316.129 324.52L317.072 262.854L330.011 258.719L333.902 270.872L329.461 272.291L331.038 319.757L316.129 324.52ZM323.194 308.824L323.087 297.589L349.658 289.099L356.063 298.323L323.194 308.824ZM356.105 311.748L329.809 272.18L325.917 260.028L334.414 257.313L371.011 306.984L356.105 311.748ZM377.115 305.035L359.285 249.365L373.461 244.837L387.645 289.125L410.818 281.721L414.462 293.101L377.115 305.035ZM421.683 290.794L403.856 235.125L418.029 230.595L432.213 274.884L455.386 267.48L459.03 278.86L421.683 290.794ZM466.255 276.553L448.424 220.884L486.622 208.679L490.269 220.06L466.244 227.735L469.767 238.73L492.359 231.511L495.771 242.159L473.175 249.378L476.784 260.643L500.806 252.967L504.449 264.348L466.255 276.553ZM513.217 261.546L495.39 205.877L507.325 202.064L546.536 231.849L534.238 228.676L540.301 226.739L530.072 194.796L544.093 190.316L561.92 245.985L550.142 249.749L510.702 219.654L522.961 222.839L516.934 224.764L527.276 257.055L513.217 261.546ZM597.374 235.848C593.073 237.221 589.018 237.809 585.208 237.609C581.388 237.383 577.896 236.401 574.727 234.663C571.561 232.925 568.772 230.47 566.367 227.299C563.952 224.101 562.01 220.213 560.547 215.635L560.533 215.597C558.606 209.578 558.048 204.072 558.862 199.078C559.699 194.075 561.775 189.783 565.083 186.203C568.419 182.614 572.879 179.927 578.467 178.142C583.025 176.685 587.357 176.209 591.464 176.711C595.585 177.179 599.225 178.484 602.381 180.622C605.527 182.736 607.914 185.545 609.547 189.049L609.762 189.448L595.741 193.928L595.502 193.579C594.066 191.572 592.187 190.23 589.869 189.553C587.554 188.875 585.018 188.977 582.263 189.857C579.609 190.705 577.54 192.088 576.056 194.009C574.571 195.93 573.716 198.314 573.495 201.164C573.298 204.005 573.775 207.226 574.928 210.827L574.941 210.866C575.82 213.618 576.917 215.975 578.229 217.938C579.561 219.893 581.049 221.431 582.685 222.552C584.346 223.666 586.128 224.358 588.031 224.629C589.928 224.874 591.893 224.671 593.928 224.021C596.063 223.338 597.824 222.365 599.208 221.101C600.616 219.828 601.592 218.354 602.132 216.679C602.668 214.977 602.703 213.18 602.236 211.287L602.052 210.58L591.125 214.072L587.91 204.042L612.551 196.169L614.814 203.229C616.025 207.009 616.547 210.598 616.388 213.995C616.226 217.392 615.395 220.507 613.89 223.341C612.385 226.175 610.243 228.66 607.464 230.795C604.703 232.897 601.34 234.581 597.374 235.848ZM630.011 224.229L612.184 168.56L650.382 156.355L654.025 167.736L630.001 175.411L633.523 186.406L656.115 179.187L659.527 189.835L636.932 197.054L640.541 208.319L664.562 200.643L668.209 212.024L630.011 224.229Z" fill="#322098"/>
</g>
</g>
<defs>
<filter id="filter0_df_1046_57" x="85.8703" y="85.7274" width="653.07" height="340.476" filterUnits="userSpaceOnUse" color-interpolation-filters="sRGB">
<feFlood flood-opacity="0" result="BackgroundImageFix"/>
<feColorMatrix in="SourceAlpha" type="matrix" values="0 0 0 0 0 0 0 0 0 0 0 0 0 0 0 0 0 0 127 0" result="hardAlpha"/>
<feOffset/>
<feGaussianBlur stdDeviation="17.45"/>
<feComposite in2="hardAlpha" operator="out"/>
<feColorMatrix type="matrix" values="0 0 0 0 0.911408 0 0 0 0 1 0 0 0 0 0.26 0 0 0 0.5 0"/>
<feBlend mode="normal" in2="BackgroundImageFix" result="effect1_dropShadow_1046_57"/>
<feBlend mode="normal" in="SourceGraphic" in2="effect1_dropShadow_1046_57" result="shape"/>
<feGaussianBlur stdDeviation="0.5" result="effect2_foregroundBlur_1046_57"/>
</filter>
</defs>
</svg>
