<svg width="1440" height="845" viewBox="0 0 1440 845" fill="none" xmlns="http://www.w3.org/2000/svg">
<g clip-path="url(#clip0_924_58)">
<g opacity="0.05">
<path d="M0 695.602L1457.5 695.602" stroke="#927EFF" stroke-width="3"/>
<path d="M0 515.554L1457.5 515.554" stroke="#927EFF" stroke-width="3"/>
<path d="M0 335.511L1457.5 335.511" stroke="#927EFF" stroke-width="3"/>
<path d="M0 155.468L1457.5 155.468" stroke="#927EFF" stroke-width="3"/>
<path d="M0 785.732L1457.5 785.732" stroke="#927EFF" stroke-width="3"/>
<path d="M0 605.684L1457.5 605.684" stroke="#927EFF" stroke-width="3"/>
<path d="M0 425.644L1457.5 425.644" stroke="#927EFF" stroke-width="3"/>
<path d="M0 245.596L1457.5 245.596" stroke="#927EFF" stroke-width="3"/>
<path d="M0 65.553L1457.5 65.5529" stroke="#927EFF" stroke-width="3"/>
<path d="M1080.26 966L1080.26 -200" stroke="#927EFF" stroke-width="3"/>
<path d="M900.213 966L900.213 -200" stroke="#927EFF" stroke-width="3"/>
<path d="M720.172 966L720.172 -200" stroke="#927EFF" stroke-width="3"/>
<path d="M540.13 966L540.13 -200" stroke="#927EFF" stroke-width="3"/>
<path d="M360.084 966L360.084 -200" stroke="#927EFF" stroke-width="3"/>
<path d="M180.036 966L180.036 -200" stroke="#927EFF" stroke-width="3"/>
<path d="M990.346 966L990.346 -200" stroke="#927EFF" stroke-width="3"/>
<path d="M810.305 966L810.305 -200" stroke="#927EFF" stroke-width="3"/>
<path d="M630.262 966L630.262 -200" stroke="#927EFF" stroke-width="3"/>
<path d="M450.222 966L450.222 -200" stroke="#927EFF" stroke-width="3"/>
<path d="M270.174 966L270.174 -200" stroke="#927EFF" stroke-width="3"/>
<path d="M90.1285 966L90.1285 -200" stroke="#927EFF" stroke-width="3"/>
<path d="M1441.23 966L1441.23 -200" stroke="#927EFF" stroke-width="3"/>
<path d="M1261.19 966L1261.19 -200" stroke="#927EFF" stroke-width="3"/>
<path d="M1351.32 966L1351.32 -200" stroke="#927EFF" stroke-width="3"/>
<path d="M1171.27 966L1171.27 -200" stroke="#927EFF" stroke-width="3"/>
</g>
</g>
<defs>
<clipPath id="clip0_924_58">
<rect width="1440" height="845" fill="white"/>
</clipPath>
</defs>
</svg>
