<svg width="37" height="37" viewBox="0 0 37 37" fill="none" xmlns="http://www.w3.org/2000/svg">
<path d="M17.6829 25.0952C17.8997 25.3118 18.1936 25.4334 18.5 25.4334C18.8064 25.4334 19.1003 25.3118 19.3171 25.0952L22.7858 21.628C22.9901 21.4088 23.1013 21.1189 23.096 20.8194C23.0907 20.5198 22.9693 20.234 22.7575 20.0222C22.5456 19.8103 22.2598 19.689 21.9603 19.6837C21.6607 19.6784 21.3708 19.7896 21.1517 19.9939L18.5 22.6409L15.8483 19.9908C15.7416 19.8804 15.614 19.7924 15.4729 19.7318C15.3318 19.6713 15.1801 19.6395 15.0265 19.6382C14.873 19.637 14.7208 19.6663 14.5787 19.7245C14.4366 19.7827 14.3076 19.8686 14.1991 19.9772C14.0905 20.0858 14.0047 20.215 13.9467 20.3571C13.8886 20.4992 13.8594 20.6515 13.8608 20.805C13.8622 20.9585 13.8942 21.1102 13.9549 21.2513C14.0155 21.3923 14.1037 21.5199 14.2142 21.6265L17.6829 25.0952ZM18.5 13.9598C18.1729 13.9598 17.8592 13.8298 17.6279 13.5985C17.3966 13.3672 17.2667 13.0535 17.2667 12.7264C17.2667 12.3993 17.3966 12.0856 17.6279 11.8543C17.8592 11.623 18.1729 11.4931 18.5 11.4931C18.8271 11.4931 19.1408 11.623 19.3721 11.8543C19.6034 12.0856 19.7333 12.3993 19.7333 12.7264C19.7333 13.0535 19.6034 13.3672 19.3721 13.5985C19.1408 13.8298 18.8271 13.9598 18.5 13.9598ZM17.2667 17.0678C17.2667 17.2297 17.2986 17.3901 17.3605 17.5397C17.4225 17.6894 17.5134 17.8253 17.6279 17.9399C17.7424 18.0544 17.8784 18.1452 18.028 18.2072C18.1776 18.2692 18.338 18.3011 18.5 18.3011C18.662 18.3011 18.8223 18.2692 18.972 18.2072C19.1216 18.1452 19.2576 18.0544 19.3721 17.9399C19.4866 17.8253 19.5775 17.6894 19.6394 17.5397C19.7014 17.3901 19.7333 17.2297 19.7333 17.0678C19.7333 16.7407 19.6034 16.427 19.3721 16.1957C19.1408 15.9644 18.8271 15.8344 18.5 15.8344C18.1729 15.8344 17.8592 15.9644 17.6279 16.1957C17.3966 16.427 17.2667 16.7407 17.2667 17.0678Z" fill="white"/>
<path fill-rule="evenodd" clip-rule="evenodd" d="M18.5 3.0849C15.4334 3.0849 12.4925 4.30309 10.3241 6.47148C8.15569 8.63987 6.9375 11.5808 6.9375 14.6474V22.3557C6.9375 25.4223 8.15569 28.3633 10.3241 30.5317C12.4925 32.7 15.4334 33.9182 18.5 33.9182C21.5666 33.9182 24.5075 32.7 26.6759 30.5317C28.8443 28.3633 30.0625 25.4223 30.0625 22.3557V14.6474C30.0625 11.5808 28.8443 8.63987 26.6759 6.47148C24.5075 4.30309 21.5666 3.0849 18.5 3.0849ZM9.25 14.6474C9.25 12.1941 10.2246 9.84137 11.9593 8.10666C13.694 6.37195 16.0467 5.3974 18.5 5.3974C20.9533 5.3974 23.306 6.37195 25.0407 8.10666C26.7755 9.84137 27.75 12.1941 27.75 14.6474V22.3557C27.75 24.809 26.7755 27.1618 25.0407 28.8965C23.306 30.6312 20.9533 31.6057 18.5 31.6057C16.0467 31.6057 13.694 30.6312 11.9593 28.8965C10.2246 27.1618 9.25 24.809 9.25 22.3557V14.6474Z" fill="white"/>
</svg>
